<svg width="23" height="29" viewBox="0 0 23 29" fill="none" xmlns="http://www.w3.org/2000/svg">
<path d="M17.2893 7.62631C15.0402 7.49528 13.1147 8.92024 12.0468 8.92024C10.9627 8.92024 9.32845 7.69183 7.54859 7.72458C5.23478 7.75734 3.08278 9.08403 1.9016 11.1969C-0.525476 15.4227 1.27056 21.6794 3.61673 25.119C4.76555 26.8224 6.14089 28.6896 7.9531 28.6241C9.66824 28.5586 10.3478 27.4939 12.4189 27.4939C14.5062 27.4939 15.1049 28.6241 16.9171 28.5913C18.794 28.5586 19.9752 26.8879 21.124 25.1845C22.4347 23.2518 22.9686 21.3682 23.001 21.2699C22.9686 21.2372 19.3765 19.845 19.3442 15.652C19.3118 12.1469 22.1758 10.4762 22.3052 10.378C20.6872 7.95389 18.163 7.69183 17.2893 7.62631Z" fill="black"/>
<path d="M15.8815 5.36605C14.9106 6.52896 13.3573 7.44618 11.804 7.31515C11.6098 5.74277 12.3703 4.07212 13.2602 3.04025C14.2311 1.84459 15.93 0.992884 17.3054 0.927368C17.4672 2.56526 16.8361 4.17039 15.8815 5.36605Z" fill="black"/>
</svg>
