<svg width="28" height="29" viewBox="0 0 28 29" fill="none" xmlns="http://www.w3.org/2000/svg">
<path d="M27.998 14.5278C27.998 13.5607 27.9202 12.5935 27.7646 11.6461H14.5547V17.1135H22.1226C21.8114 18.8701 20.7997 20.4491 19.3211 21.436V24.9888H23.8347C26.4805 22.5216 27.998 18.8701 27.998 14.5278Z" fill="#0080FF"/>
<path d="M14.5564 28.4231C18.3306 28.4231 21.5212 27.1599 23.8364 24.9888L19.3228 21.436C18.0583 22.3044 16.4435 22.7979 14.5564 22.7979C10.8989 22.7979 7.80553 20.2912 6.6966 16.9358H2.04688V20.607C4.42037 25.4033 9.26465 28.4231 14.5564 28.4231Z" fill="#34A853"/>
<path d="M6.69656 16.9359C6.11282 15.1793 6.11282 13.2647 6.69656 11.4883V7.83685H2.0461C0.041925 11.8436 0.041925 16.5807 2.0461 20.5874L6.69656 16.9359Z" fill="#FF8F1E"/>
<path d="M14.5564 5.6261C16.5602 5.58663 18.4863 6.3564 19.9259 7.75778L23.9337 3.69181C21.3851 1.28381 18.0388 -0.0386164 14.5564 0.000859004C9.26465 0.000859004 4.42037 3.04047 2.04688 7.83673L6.6966 11.5079C7.80553 8.13279 10.8989 5.6261 14.5564 5.6261Z" fill="#EA4335"/>
</svg>
