<svg width="266" height="537" viewBox="0 0 266 537" fill="none" xmlns="http://www.w3.org/2000/svg">
<path d="M-27.7308 536.463C-40.6196 536.463 -53.6455 535.641 -66.6715 533.858C-145.102 523.574 -214.893 483.4 -263.021 420.738C-311.286 358.076 -332.127 280.332 -321.981 201.901C-311.697 123.471 -271.522 53.6796 -208.86 5.41498L-179.655 43.5331C-232.17 83.9821 -265.9 142.393 -274.402 208.072C-283.04 273.75 -265.489 338.88 -225.04 391.532C-184.591 444.047 -126.18 477.778 -60.5014 486.279C5.31406 494.78 70.3069 477.366 122.959 436.917C175.474 396.468 209.205 338.057 217.706 272.379L265.285 278.549C255.001 356.979 214.826 426.771 152.165 474.898C99.9237 515.073 37.1248 536.326 -27.7308 536.326V536.463Z" fill="#F6F6F6"/>
<path d="M-27.7323 480.109C-38.1531 480.109 -48.711 479.423 -59.2689 478.052L-53.0987 430.473C-2.22891 437.055 48.0927 423.617 88.6788 392.355C129.265 361.093 155.317 315.982 161.898 265.112C168.48 214.242 155.043 163.921 123.78 123.335C92.518 82.7484 47.407 56.6965 -3.4628 50.115C-54.3326 43.5334 -104.654 56.9707 -145.24 88.2331C-185.827 119.495 -211.878 164.606 -218.46 215.476L-266.039 209.306C-257.812 145.822 -225.179 89.33 -174.446 50.2521C-123.713 11.1742 -60.7772 -5.69105 2.84439 2.53588C66.3289 10.7628 122.821 43.3963 161.898 94.129C200.976 144.862 217.841 207.798 209.615 271.419C201.388 334.904 168.754 391.395 118.022 430.473C75.6528 463.107 24.92 480.246 -27.7323 480.246V480.109Z" fill="#F6F6F6"/>
<path d="M-27.1836 423.892C-35.1363 423.892 -43.226 423.343 -51.3158 422.246C-115.212 413.882 -168.961 373.845 -195.287 314.885L-151.41 295.278C-131.94 338.743 -92.1763 368.36 -45.1457 374.53C-9.22144 379.192 26.2914 369.594 55.0857 347.519C83.7428 325.443 102.117 293.495 106.916 257.571C112.537 214.791 97.1803 171.462 65.7809 141.708C44.9393 121.826 18.7502 109.486 -9.90691 105.647L-3.73676 58.0677C35.0669 63.141 70.5798 80.0062 98.8256 106.881C141.194 147.193 162.036 205.878 154.494 263.741C148.187 312.417 123.232 355.608 84.4284 385.499C52.0692 410.454 13.1285 423.618 -27.0463 423.618L-27.1836 423.892Z" fill="#F6F6F6"/>
</svg>
