<svg xmlns="http://www.w3.org/2000/svg" xmlns:xlink="http://www.w3.org/1999/xlink" id="Layer_2_00000011727963225620952670000009027434246460124577_" x="0px" y="0px" viewBox="0 0 653.6 158.8" style="enable-background:new 0 0 653.6 158.8;" xml:space="preserve"><style type="text/css">	.st0{fill:#00C4FF;}	.st1{enable-background:new    ;}</style><path class="st0" d="M31.4,64.7v20.4h19.8v15.3h-20v31.1c0,6.9,3.8,10.2,9.3,10.2c2.8,0,6-0.9,8.6-2.2l5,15.2 c-5.1,2-9.3,2.9-14.7,3.1c-15.6,0.6-25.8-8.3-25.8-26.2v-31.1H0.2V85.1h13.4V66.6L31.4,64.7L31.4,64.7L31.4,64.7z"></path><path class="st0" d="M81,85l1.3,8.3c5.5-8.9,13-10.2,20.3-10.2s14.6,2.9,18.5,6.8l-8,15.4c-3.6-3.1-7-4.7-12.8-4.7 c-9.3,0-17.9,5-17.9,18.2v37.9H64.5V85C64.5,85,81,85,81,85z"></path><path class="st0" d="M142.9,127.3c1.2,8.9,8.9,15.3,21.4,15.3c6.6,0,15.2-2.5,19.2-6.7l11.4,11.2c-7.6,7.9-20,11.7-30.9,11.7 c-24.8,0-39.5-15.3-39.5-38.3s14.9-37.6,38.2-37.6s39.1,14.9,36.3,44.5L142.9,127.3L142.9,127.3z M182,112.5 c-1.2-9.3-8.4-14-18.7-14c-9.6,0-17.5,4.7-20.1,14H182z"></path><path class="st0" d="M265.6,156.9v-37.6c0-10.9-6-19.2-17.4-19.2s-18.4,9.2-18.4,20.1v36.7h-17.6v-72h15.9l1.2,9.8 c7.3-7.1,14.6-10.8,23.6-10.8c16.9,0,30.5,12.7,30.5,35.3v37.8L265.6,156.9L265.6,156.9L265.6,156.9z"></path><path class="st0" d="M373.4,55v101.9h-16.6l-1.2-9.9c-5.5,8.6-14.4,11.5-23.2,11.5c-21.1,0-37-14-37-37.6 c0-24.8,15.6-37.6,36.6-37.6c7.6,0,19.4,4.1,23.6,11.5V55C355.6,55,373.4,55,373.4,55z M313.2,120.9c0,12.5,9,21.1,20.4,21.1 s20.9-8.2,20.9-21.1s-9.6-21-20.9-21S313.2,107.9,313.2,120.9z"></path><path class="st0" d="M406.6,55v39.8c4.2-7.4,16-11.5,23.6-11.5c21,0,36.6,12.8,36.6,37.6s-15.9,37.6-37,37.6 c-8.8,0-17.6-2.9-23.2-11.5l-1.2,9.9h-16.6V55H406.6z M407.8,120.9c0,13,9.6,21.1,20.9,21.1s20.4-8.6,20.4-21.1s-9-21-20.4-21 S407.8,108.3,407.8,120.9z"></path><path class="st0" d="M630.9,85h21.3v0.6l-23.6,34.8l25.1,36v0.4h-21.3l-15.6-24.1l-15.6,24.1h-21.3v-0.4l25.1-36l-23.6-34.8V85h21.3 l14.1,24.3L630.9,85L630.9,85L630.9,85z"></path><path class="st0" d="M528.6,156.7c-2.1,0-4.2-0.1-6.4-0.4c-12.9-1.7-24.3-8.3-32.2-18.5s-11.3-23-9.6-35.9 c1.7-12.9,8.3-24.3,18.5-32.2l4.8,6.2c-8.6,6.6-14.1,16.2-15.5,27c-1.4,10.8,1.5,21.4,8.1,30.1s16.2,14.1,27,15.5 c10.8,1.4,21.5-1.5,30.1-8.1s14.1-16.2,15.5-27l7.8,1c-1.7,12.8-8.3,24.3-18.5,32.2C549.5,153.2,539.2,156.7,528.6,156.7 L528.6,156.7L528.6,156.7L528.6,156.7z"></path><path class="st0" d="M528.5,147.4c-1.7,0-3.4-0.1-5.2-0.3l1-7.8c8.3,1.1,16.6-1.1,23.2-6.2s10.9-12.5,12-20.9s-1.1-16.6-6.2-23.2 s-12.5-10.9-20.9-12c-8.3-1.1-16.6,1.1-23.2,6.2c-6.7,5.1-10.9,12.5-12,20.9l-7.8-1c1.4-10.4,6.7-19.7,15-26.1s18.6-9.2,29-7.8 s19.7,6.7,26.1,15s9.2,18.6,7.8,29.1s-6.7,19.7-15,26.1C545.5,144.6,537.2,147.4,528.5,147.4L528.5,147.4L528.5,147.4z"></path><path class="st0" d="M528.6,138.2c-1.3,0-2.6-0.1-4-0.3c-10.5-1.4-19.3-7.9-23.6-17.6l7.2-3.2c3.2,7.1,9.7,12,17.4,13 c5.9,0.8,11.7-0.8,16.4-4.4c4.7-3.6,7.7-8.8,8.5-14.7c0.9-7-1.6-14.1-6.7-19c-3.4-3.2-7.7-5.3-12.4-5.9l1-7.8 c6.4,0.8,12.2,3.6,16.8,8c7,6.6,10.4,16.2,9.1,25.7c-1,8-5.1,15.1-11.5,19.9C541.6,136.1,535.2,138.2,528.6,138.2L528.6,138.2 L528.6,138.2z"></path><g class="st1">	<path d="M3.4,54.9V8.7h17.4c3.6,0,6.5,0.7,9,2c2.4,1.3,4.2,3.1,5.5,5.5c1.2,2.3,1.9,4.9,1.9,7.9c0,3-0.6,5.6-1.9,7.9  c-1.3,2.3-3.1,4.1-5.5,5.4s-5.4,2-9,2H9.1v-6.9h10.3c2.1,0,3.8-0.4,5.1-1.1c1.3-0.7,2.3-1.7,3-3c0.6-1.3,0.9-2.7,0.9-4.4  c0-1.7-0.3-3.1-0.9-4.4c-0.6-1.3-1.6-2.2-3-2.9c-1.3-0.7-3.1-1-5.2-1h-7.7v39.2H3.4z"></path></g><g class="st1">	<path d="M56.2,55.6c-3.4,0-6.3-0.7-8.8-2.2s-4.4-3.6-5.8-6.3c-1.4-2.7-2-5.8-2-9.4c0-3.6,0.7-6.7,2-9.4c1.4-2.7,3.3-4.8,5.8-6.3  s5.4-2.2,8.8-2.2c3.4,0,6.3,0.7,8.8,2.2s4.4,3.6,5.8,6.3s2,5.8,2,9.4c0,3.6-0.7,6.7-2,9.4c-1.4,2.7-3.3,4.8-5.8,6.3  S59.6,55.6,56.2,55.6z M56.2,49c1.9,0,3.4-0.5,4.7-1.5c1.2-1,2.1-2.4,2.7-4.1c0.6-1.7,0.9-3.6,0.9-5.7c0-2.1-0.3-4.1-0.9-5.8  c-0.6-1.7-1.5-3.1-2.7-4.1c-1.2-1-2.8-1.5-4.7-1.5c-1.8,0-3.4,0.5-4.6,1.5c-1.2,1-2.2,2.4-2.8,4.1c-0.6,1.7-0.9,3.6-0.9,5.8  c0,2.1,0.3,4,0.9,5.7c0.6,1.7,1.5,3.1,2.8,4.1C52.8,48.5,54.3,49,56.2,49z"></path>	<path d="M83,54.9l-9.8-34.7h8.3l6.1,24.4h0.3l6.2-24.4h8.2l6.2,24.3h0.3l6-24.3h8.4l-9.8,34.7H105l-6.5-23.4H98l-6.5,23.4H83z"></path></g><g class="st1">	<path d="M141.7,55.6c-3.5,0-6.5-0.7-9-2.2s-4.5-3.5-5.8-6.2c-1.4-2.7-2-5.8-2-9.4c0-3.6,0.7-6.7,2-9.4c1.3-2.7,3.2-4.8,5.7-6.3  c2.4-1.5,5.3-2.3,8.6-2.3c2.1,0,4.2,0.3,6.1,1c1.9,0.7,3.6,1.7,5.1,3.2c1.5,1.4,2.6,3.2,3.5,5.4c0.8,2.2,1.3,4.8,1.3,7.9v2.5h-28.4  v-5.5H153l-3.8,1.6c0-2-0.3-3.7-0.9-5.1c-0.6-1.5-1.5-2.6-2.7-3.4c-1.2-0.8-2.6-1.2-4.4-1.2s-3.3,0.4-4.5,1.2  c-1.2,0.8-2.2,1.9-2.8,3.3s-1,3-1,4.7v3.8c0,2.1,0.4,3.9,1.1,5.4s1.8,2.6,3.1,3.4c1.3,0.8,2.9,1.2,4.7,1.2c1.2,0,2.2-0.2,3.2-0.5  c1-0.3,1.8-0.8,2.5-1.5c0.7-0.7,1.2-1.5,1.6-2.5l7.6,0.9c-0.5,2-1.4,3.8-2.7,5.3s-3,2.7-5.1,3.5C146.8,55.2,144.4,55.6,141.7,55.6z  "></path></g><g class="st1">	<path d="M161.5,54.9V20.2h7.9v5.8h0.4c0.6-2,1.7-3.6,3.3-4.7c1.6-1.1,3.3-1.6,5.3-1.6c0.4,0,0.9,0,1.5,0.1c0.6,0,1,0.1,1.4,0.2v7.5  c-0.4-0.1-0.9-0.2-1.6-0.3c-0.7-0.1-1.5-0.1-2.1-0.1c-1.5,0-2.9,0.3-4,1c-1.2,0.6-2.1,1.5-2.8,2.6c-0.7,1.1-1,2.4-1,3.9v20.4H161.5  z"></path></g><g class="st1">	<path d="M198.3,55.6c-3.5,0-6.5-0.7-9-2.2s-4.5-3.5-5.8-6.2c-1.4-2.7-2-5.8-2-9.4c0-3.6,0.7-6.7,2-9.4c1.3-2.7,3.2-4.8,5.7-6.3  c2.4-1.5,5.3-2.3,8.6-2.3c2.1,0,4.2,0.3,6.1,1c1.9,0.7,3.6,1.7,5.1,3.2c1.5,1.4,2.6,3.2,3.5,5.4c0.8,2.2,1.3,4.8,1.3,7.9v2.5h-28.4  v-5.5h24.4l-3.8,1.6c0-2-0.3-3.7-0.9-5.1c-0.6-1.5-1.5-2.6-2.7-3.4c-1.2-0.8-2.6-1.2-4.4-1.2s-3.3,0.4-4.5,1.2  c-1.2,0.8-2.2,1.9-2.8,3.3s-1,3-1,4.7v3.8c0,2.1,0.4,3.9,1.1,5.4s1.8,2.6,3.1,3.4c1.3,0.8,2.9,1.2,4.7,1.2c1.2,0,2.2-0.2,3.2-0.5  c1-0.3,1.8-0.8,2.5-1.5c0.7-0.7,1.2-1.5,1.6-2.5l7.6,0.9c-0.5,2-1.4,3.8-2.7,5.3s-3,2.7-5.1,3.5C203.4,55.2,201,55.6,198.3,55.6z"></path>	<path d="M230.9,55.6c-2.7,0-5.1-0.7-7.3-2.1c-2.2-1.4-3.9-3.4-5.1-6.1c-1.2-2.7-1.9-5.9-1.9-9.7c0-3.9,0.6-7.1,1.9-9.8s3-4.7,5.1-6  c2.2-1.4,4.6-2,7.2-2c2,0,3.7,0.3,5,1c1.3,0.7,2.3,1.5,3.1,2.5c0.8,1,1.4,1.9,1.8,2.7h0.3V8.7h8.1v46.3h-8v-5.5h-0.5  c-0.4,0.8-1,1.7-1.8,2.7c-0.8,0.9-1.8,1.7-3.1,2.4C234.5,55.2,232.9,55.6,230.9,55.6z M233.1,48.8c1.7,0,3.2-0.5,4.4-1.4  c1.2-0.9,2.1-2.3,2.8-3.9c0.6-1.7,1-3.6,1-5.9c0-2.3-0.3-4.2-0.9-5.9c-0.6-1.7-1.6-3-2.8-3.9s-2.7-1.4-4.5-1.4  c-1.8,0-3.3,0.5-4.5,1.4c-1.2,1-2.1,2.3-2.7,3.9c-0.6,1.7-0.9,3.6-0.9,5.7c0,2.2,0.3,4.1,0.9,5.8c0.6,1.7,1.5,3,2.7,4  S231.3,48.8,233.1,48.8z"></path>	<path d="M269.1,54.9V8.7h17.8c3.3,0,6.1,0.5,8.3,1.6c2.2,1,3.9,2.5,5,4.3c1.1,1.8,1.6,3.9,1.6,6.1c0,1.9-0.4,3.5-1.1,4.8  c-0.7,1.3-1.7,2.4-2.9,3.2s-2.6,1.4-4.1,1.8V31c1.7,0.1,3.2,0.6,4.7,1.5c1.5,0.9,2.7,2.2,3.7,3.9c1,1.7,1.4,3.7,1.4,6  c0,2.4-0.6,4.5-1.7,6.4c-1.1,1.9-2.9,3.4-5.2,4.5s-5.3,1.7-8.8,1.7H269.1z M277.5,28.4h8.3c1.4,0,2.7-0.3,3.9-0.8  c1.2-0.5,2.1-1.3,2.7-2.3c0.7-1,1-2.1,1-3.5c0-1.8-0.6-3.3-1.9-4.4c-1.3-1.2-3.1-1.8-5.6-1.8h-8.5V28.4z M277.5,47.9h9  c3,0,5.2-0.6,6.6-1.8c1.4-1.2,2-2.7,2-4.5c0-1.4-0.3-2.6-1-3.7c-0.7-1.1-1.7-2-2.9-2.6c-1.3-0.6-2.7-1-4.4-1h-9.3V47.9z"></path>	<path d="M313.3,67.9c-1.1,0-2.1-0.1-3.1-0.2c-0.9-0.2-1.7-0.4-2.3-0.6l1.9-6.4l0.4,0.1c1.7,0.4,3.1,0.5,4.2,0.1  c1.2-0.4,2.1-1.5,2.8-3.4l0.7-1.9l-12.5-35.5h8.7l8,26.2h0.4l8-26.2h8.7l-13.9,38.9c-0.6,1.8-1.5,3.4-2.5,4.7s-2.4,2.3-3.9,3  C317.3,67.6,315.4,67.9,313.3,67.9z"></path></g></svg>