<svg xmlns="http://www.w3.org/2000/svg" id="Layer_2" data-name="Layer 2" viewBox="0 0 288.14 59.02"><defs><style>      .cls-1 {        fill: #ff8e1e;        stroke-width: 0px;      }    </style></defs><g id="Layer_1-2" data-name="Layer 1"><g><path class="cls-1" d="m13.96,4.37v9.13h8.87v6.85h-8.93v13.89c0,3.07,1.7,4.56,4.17,4.56,1.24,0,2.67-.39,3.85-.98l2.22,6.78c-2.28.91-4.17,1.3-6.59,1.37-6.98.26-11.54-3.72-11.54-11.74v-13.89H0v-6.85h6V5.22l7.96-.85Zm22.17,9.06l.59,3.72c2.48-3.98,5.8-4.56,9.06-4.56s6.52,1.3,8.28,3.07l-3.59,6.91c-1.63-1.37-3.13-2.09-5.74-2.09-4.17,0-8.02,2.22-8.02,8.15v16.96h-7.96V13.43h7.37Zm27.72,18.91c.52,3.98,3.98,6.85,9.59,6.85,2.93,0,6.78-1.11,8.61-3l5.09,5.02c-3.39,3.52-8.93,5.22-13.83,5.22-11.09,0-17.67-6.85-17.67-17.15s6.65-16.83,17.09-16.83,17.48,6.65,16.24,19.89h-25.11Zm17.48-6.59c-.52-4.17-3.78-6.26-8.35-6.26-4.3,0-7.83,2.09-9,6.26h17.35Zm37.43,19.83v-16.83c0-4.89-2.67-8.61-7.76-8.61s-8.22,4.11-8.22,9v16.43h-7.89V13.37h7.11l.52,4.37c3.26-3.2,6.52-4.83,10.56-4.83,7.57,0,13.63,5.67,13.63,15.78v16.89h-7.96ZM166.95,0v45.59h-7.44l-.52-4.44c-2.48,3.85-6.46,5.15-10.37,5.15-9.46,0-16.57-6.26-16.57-16.83,0-11.09,6.98-16.83,16.37-16.83,3.39,0,8.67,1.83,10.56,5.15V0h7.96Zm-26.93,29.48c0,5.61,4.04,9.46,9.13,9.46s9.33-3.65,9.33-9.46-4.3-9.39-9.33-9.39-9.13,3.59-9.13,9.39Zm33.85,29.54V13.43h7.44l.52,4.44c2.48-3.59,6.78-5.15,10.43-5.15,9.91,0,16.5,7.37,16.5,16.83s-5.93,16.83-16.24,16.83c-3.39,0-8.41-1.04-10.7-4.56v17.22h-7.96Zm26.93-29.48c0-5.02-3.39-9.13-9.13-9.13s-9.13,4.11-9.13,9.13,3.72,9.13,9.13,9.13,9.13-4.11,9.13-9.13Zm81.4-7.56c-2.28-2.15-4.89-2.87-7.96-2.87-3.78,0-5.87,1.17-5.87,3.2s1.89,3.26,6,3.52c6.07.39,13.76,1.76,13.76,10.3,0,5.67-4.63,10.57-13.83,10.57-5.09,0-10.17-.85-14.87-5.74l3.91-5.67c2.28,2.54,7.5,4.44,11.09,4.5,3,.07,5.8-1.5,5.8-3.85,0-2.22-1.83-3.13-6.39-3.39-6.07-.46-13.3-2.67-13.3-9.98s7.7-10.04,13.57-10.04c5.02,0,8.8.98,12.52,4.24l-4.43,5.22Z"></path><g><path class="cls-1" d="m236.25,47.93c-.94,0-1.89-.06-2.84-.19-5.72-.75-10.81-3.68-14.32-8.25-3.52-4.57-5.04-10.24-4.3-15.96.75-5.72,3.68-10.81,8.25-14.33l2.13,2.78c-3.83,2.95-6.29,7.21-6.91,12-.63,4.79.65,9.54,3.6,13.38,2.95,3.83,7.21,6.29,12,6.91,4.8.62,9.54-.65,13.38-3.6,3.83-2.95,6.29-7.21,6.91-12l3.47.45c-.75,5.72-3.68,10.81-8.25,14.32-3.81,2.93-8.39,4.48-13.12,4.48Z"></path><path class="cls-1" d="m236.25,43.82c-.76,0-1.53-.05-2.3-.15l.45-3.47c3.71.48,7.38-.5,10.34-2.78,2.96-2.28,4.86-5.57,5.34-9.28.48-3.71-.5-7.38-2.78-10.34-2.28-2.96-5.57-4.86-9.28-5.34-3.71-.48-7.38.5-10.34,2.78-2.96,2.28-4.86,5.57-5.34,9.28l-3.47-.45c.6-4.63,2.98-8.75,6.68-11.6,3.7-2.85,8.29-4.08,12.93-3.48,4.63.6,8.75,2.98,11.6,6.68,2.85,3.7,4.08,8.29,3.48,12.93-.6,4.63-2.98,8.75-6.68,11.6-3.09,2.38-6.79,3.63-10.63,3.63Z"></path><path class="cls-1" d="m236.29,39.72c-.58,0-1.17-.04-1.76-.12-4.66-.61-8.58-3.53-10.5-7.83l3.2-1.43c1.42,3.17,4.32,5.33,7.75,5.78,2.62.34,5.21-.36,7.31-1.97,2.09-1.61,3.43-3.94,3.78-6.56.41-3.12-.71-6.28-3-8.45-1.52-1.45-3.43-2.35-5.52-2.63l.45-3.47c2.83.37,5.42,1.6,7.48,3.56,3.09,2.94,4.61,7.22,4.06,11.44-.46,3.55-2.28,6.7-5.11,8.88-2.36,1.82-5.2,2.78-8.13,2.78Z"></path></g></g></g></svg>